<?xml version="1.0" encoding="UTF-8" standalone="no"?>
<!-- Created with Inkscape (http://www.inkscape.org/) -->

<svg
   version="1.1"
   id="svg8449"
   width="1066.6667"
   height="1066.6667"
   viewBox="0 0 1066.6667 1066.6667"
   sodipodi:docname="rudder-clipart-pdv.svg"
   inkscape:version="1.2 (dc2aedaf03, 2022-05-15)"
   xmlns:inkscape="http://www.inkscape.org/namespaces/inkscape"
   xmlns:sodipodi="http://sodipodi.sourceforge.net/DTD/sodipodi-0.dtd"
   xmlns="http://www.w3.org/2000/svg"
   xmlns:svg="http://www.w3.org/2000/svg">
  <defs
     id="defs8453">
    <clipPath
       clipPathUnits="userSpaceOnUse"
       id="clipPath8465">
      <path
         d="M 0,0 H 800 V 800 H 0 Z"
         id="path8463" />
    </clipPath>
    <radialGradient
       fx="0"
       fy="0"
       cx="0"
       cy="0"
       r="1"
       gradientUnits="userSpaceOnUse"
       gradientTransform="matrix(565.48401,0,0,-565.48401,400,400)"
       spreadMethod="pad"
       id="radialGradient8475">
      <stop
         style="stop-opacity:1;stop-color:#ffffff"
         offset="0"
         id="stop8471" />
      <stop
         style="stop-opacity:1;stop-color:#9bb3c6"
         offset="1"
         id="stop8473" />
    </radialGradient>
    <clipPath
       clipPathUnits="userSpaceOnUse"
       id="clipPath8485">
      <path
         d="M 0,800 H 800 V 0 H 0 Z"
         id="path8483" />
    </clipPath>
    <clipPath
       clipPathUnits="userSpaceOnUse"
       id="clipPath8509">
      <path
         d="M 76.9678,723.032 H 720.56 V 79.4395 H 76.9678 Z"
         id="path8507" />
    </clipPath>
  </defs>
  <sodipodi:namedview
     id="namedview8451"
     pagecolor="#ffffff"
     bordercolor="#000000"
     borderopacity="0.25"
     inkscape:showpageshadow="2"
     inkscape:pageopacity="0.0"
     inkscape:pagecheckerboard="0"
     inkscape:deskcolor="#d1d1d1"
     showgrid="false"
     inkscape:zoom="0.7846874"
     inkscape:cx="533.3334"
     inkscape:cy="533.97059"
     inkscape:window-width="1920"
     inkscape:window-height="1017"
     inkscape:window-x="-8"
     inkscape:window-y="-8"
     inkscape:window-maximized="1"
     inkscape:current-layer="g8457">
    <inkscape:page
       x="0"
       y="0"
       id="page8455"
       width="1066.6667"
       height="1066.6667" />
  </sodipodi:namedview>
  <g
     id="g8457"
     inkscape:groupmode="layer"
     inkscape:label="Page 1"
     transform="matrix(1.3333333,0,0,-1.3333333,0,1066.6667)">
    <g
       id="g8459">
      <g
         id="g8461"
         clip-path="url(#clipPath8465)">
        <g
           id="g8467">
          <g
             id="g8469">
            <path
               d="M 0,0 H 800 V 800 H 0 Z"
               style="fill:url(#radialGradient8475);stroke:none"
               id="path8477" />
          </g>
        </g>
      </g>
    </g>
    <g
       id="g8479">
      <g
         id="g8481"
         clip-path="url(#clipPath8485)">
        <g
           id="g8487"
           transform="translate(536.4395,177.4385)">
          <path
             d="m 0,0 c -6.034,10.452 -15.145,27.518 -14.216,31.49 0.928,3.973 3.487,4.376 2.651,5.825 -0.837,1.451 -5.733,2.49 -5.733,2.49 l 1.933,1.116 -5.672,9.824 c 3.216,2.167 6.359,4.432 9.444,6.772 -13.127,-2.462 -27.336,-4.708 -42.527,-6.549 -24.926,-12.006 -52.851,-18.739 -82.32,-18.739 -29.481,0 -57.418,6.738 -82.352,18.754 -15.19,1.844 -29.399,4.092 -42.524,6.556 3.095,-2.348 6.249,-4.62 9.475,-6.794 l -5.673,-9.824 1.933,-1.116 c 0,0 -4.895,-1.039 -5.732,-2.49 -0.837,-1.449 1.722,-1.852 2.65,-5.825 0.928,-3.972 -8.181,-21.038 -14.216,-31.49 -6.035,-10.452 -19.319,-19.704 -26.216,-31.649 -6.897,-11.945 -3.3,-22.136 1.139,-25.543 5.171,-2.142 15.795,-0.161 22.691,11.785 6.897,11.944 8.267,28.076 14.302,38.528 6.034,10.452 16.259,26.874 20.163,28.056 3.903,1.182 5.533,-0.832 6.37,0.618 0.837,1.449 -0.711,6.209 -0.711,6.209 l 1.933,-1.116 5.654,9.793 c 23.539,-11.586 49.582,-18.826 77.082,-20.676 V 4.719 h 2.232 c 0,0 -3.721,-3.348 -3.721,-5.022 0,-1.674 2.418,-0.744 5.208,-3.72 2.79,-2.976 3.434,-22.31 3.434,-34.378 0,-12.07 -6.879,-26.725 -6.879,-40.518 0,-13.793 8.21,-20.821 13.758,-21.552 5.548,0.731 13.759,7.759 13.759,21.552 0,13.793 -6.88,28.448 -6.88,40.518 0,12.068 0.645,31.402 3.435,34.378 2.789,2.976 5.207,2.046 5.207,3.72 0,1.674 -3.72,5.022 -3.72,5.022 h 2.233 v 11.286 c 27.499,1.85 53.542,9.09 77.081,20.676 l 5.654,-9.793 1.933,1.116 c 0,0 -1.547,-4.76 -0.71,-6.209 0.837,-1.45 2.465,0.564 6.369,-0.618 3.904,-1.182 14.129,-17.604 20.164,-28.056 6.034,-10.452 7.404,-26.584 14.301,-38.528 6.896,-11.946 17.52,-13.927 22.691,-11.785 4.44,3.407 8.035,13.598 1.139,25.543 C 19.319,-19.704 6.034,-10.452 0,0 M -83.602,48.045 C -100.283,46.757 -117.911,46.006 -136.391,46 h -0.005 c -18.525,0.006 -36.195,0.76 -52.912,2.055 16.741,-5.082 34.489,-7.826 52.868,-7.826 18.369,0 36.106,2.741 52.838,7.816 m -217.339,187.851 c 0.101,-0.415 0.159,-0.798 0.159,-1.063 v -0.108 c 1.081,3.074 3.272,3.089 4.945,1.35 0.729,-0.758 2.192,-2.42 4.123,-2.447 1.931,0.027 3.394,1.689 4.123,2.447 1.672,1.739 3.864,1.724 4.945,-1.35 v 0.108 c 0,0.973 0.754,3.51 1.685,3.51 0.932,0 1.686,-2.537 1.686,-3.51 0,0.973 0.755,3.51 1.686,3.51 0.931,0 1.686,-2.537 1.686,-3.51 v -0.108 c 2.481,3.074 7.509,3.089 11.349,1.35 1.673,-0.758 5.029,-6.355 9.461,-6.444 4.432,0.089 7.789,5.686 9.462,6.444 3.84,1.739 8.868,1.724 11.349,-1.35 v 0.108 c 0,0.973 0.755,3.51 1.686,3.51 0.931,0 1.685,-2.537 1.685,-3.51 v -0.108 c 1.52,3.074 4.601,3.089 6.954,1.35 1.026,-0.758 3.082,-6.355 5.798,-6.444 2.716,0.089 4.773,5.686 5.798,6.444 2.353,1.739 5.434,1.724 6.954,-1.35 v -0.164 h 21.453 c 0.116,0.458 0.246,0.909 0.373,1.361 l -18.586,10.731 -0.082,-0.141 c -2.854,-1.903 -5.529,-0.375 -6.697,2.307 -0.509,1.169 0.508,7.045 -1.799,8.48 -2.397,1.281 -6.976,-2.538 -8.243,-2.682 -2.907,-0.329 -5.568,1.224 -5.348,4.647 l -0.054,-0.094 c -0.486,-0.843 -2.408,-2.663 -3.215,-2.197 -0.806,0.466 -0.191,3.04 0.295,3.882 l 0.055,0.094 c -3.686,-1.422 -8.048,1.08 -10.504,4.505 -1.07,1.493 -1.178,8.019 -4.972,10.312 -3.883,2.138 -9.588,-1.03 -11.416,-0.85 -4.194,0.414 -8.542,2.94 -9.153,6.844 l -0.054,-0.094 c -0.486,-0.842 -2.409,-2.662 -3.215,-2.197 -0.807,0.465 -0.191,3.04 0.295,3.883 -0.486,-0.843 -2.409,-2.663 -3.215,-2.197 -0.806,0.466 -0.191,3.04 0.295,3.883 l 0.054,0.093 c -2.473,-2.122 -4.378,-1.039 -4.958,1.303 -0.252,1.021 -0.688,3.192 -2.346,4.181 -1.686,0.942 -3.785,0.234 -4.794,-0.057 -2.319,-0.67 -4.209,0.438 -3.608,3.641 l -0.054,-0.094 c -0.127,-0.219 -0.353,-0.504 -0.629,-0.798 -8.408,-17.648 -13.773,-37.011 -15.412,-57.411 m 28.258,79.37 c 2.473,2.123 4.378,1.04 4.958,-1.303 0.252,-1.021 0.688,-3.192 2.347,-4.18 1.685,-0.943 3.784,-0.234 4.794,0.057 2.318,0.67 4.208,-0.438 3.607,-3.642 l 0.055,0.094 c 0.486,0.843 2.408,2.663 3.214,2.197 0.807,-0.466 0.192,-3.04 -0.295,-3.883 0.487,0.843 2.409,2.662 3.215,2.197 0.806,-0.465 0.192,-3.04 -0.295,-3.883 l -0.054,-0.093 c 3.686,1.422 8.048,-1.08 10.503,-4.505 1.07,-1.493 1.179,-8.018 4.973,-10.311 3.883,-2.139 9.588,1.029 11.416,0.849 4.194,-0.414 8.542,-2.941 9.153,-6.844 l 0.054,0.094 c 0.486,0.843 2.409,2.662 3.215,2.197 0.806,-0.466 0.191,-3.04 -0.295,-3.883 l -0.054,-0.093 c 2.854,1.902 5.529,0.374 6.697,-2.308 0.509,-1.169 -0.508,-7.045 1.799,-8.479 2.397,-1.281 6.976,2.537 8.243,2.681 2.907,0.33 5.568,-1.223 5.347,-4.646 l -0.081,-0.142 18.595,-10.735 c 0.326,0.335 0.657,0.666 0.992,0.992 l -10.736,18.595 -0.141,-0.082 c -3.423,-0.22 -4.976,2.441 -4.646,5.348 0.143,1.267 3.962,5.846 2.681,8.243 -1.435,2.307 -7.31,1.29 -8.479,1.799 -2.682,1.168 -4.21,3.843 -2.308,6.697 l -0.093,-0.054 c -0.843,-0.486 -3.417,-1.101 -3.883,-0.295 -0.465,0.806 1.354,2.729 2.197,3.215 l 0.094,0.054 c -3.903,0.611 -6.43,4.959 -6.844,9.153 -0.181,1.828 2.988,7.533 0.849,11.416 -2.293,3.794 -8.818,3.902 -10.311,4.973 -3.426,2.455 -5.928,6.817 -4.505,10.503 l -0.093,-0.054 c -0.843,-0.487 -3.418,-1.102 -3.883,-0.295 -0.466,0.806 1.354,2.728 2.197,3.214 -0.843,-0.486 -3.417,-1.101 -3.883,-0.294 -0.466,0.806 1.354,2.728 2.197,3.214 l 0.094,0.055 c -3.204,-0.602 -4.312,1.289 -3.642,3.607 0.291,1.01 1,3.109 0.057,4.794 -0.989,1.659 -3.159,2.095 -4.18,2.347 -2.343,0.58 -3.426,2.485 -1.303,4.958 l -0.094,-0.054 c -0.188,-0.109 -0.471,-0.223 -0.789,-0.327 -16.519,-11.414 -30.861,-25.757 -42.275,-42.275 -0.104,-0.318 -0.218,-0.601 -0.327,-0.789 z m 64.606,55.702 c 3.203,0.601 4.311,-1.289 3.641,-3.608 -0.291,-1.009 -0.999,-3.108 -0.057,-4.794 0.989,-1.658 3.16,-2.094 4.181,-2.346 2.342,-0.58 3.425,-2.485 1.303,-4.958 l 0.093,0.054 c 0.843,0.486 3.417,1.101 3.883,0.295 0.466,-0.806 -1.354,-2.729 -2.197,-3.215 0.843,0.486 3.418,1.101 3.883,0.295 0.465,-0.806 -1.355,-2.729 -2.197,-3.215 l -0.094,-0.054 c 3.904,-0.611 6.43,-4.959 6.844,-9.153 0.18,-1.828 -2.988,-7.533 -0.85,-11.416 2.293,-3.794 8.819,-3.902 10.312,-4.972 3.425,-2.456 5.927,-6.818 4.505,-10.504 l 0.094,0.055 c 0.842,0.486 3.416,1.101 3.882,0.295 0.466,-0.807 -1.354,-2.729 -2.197,-3.215 l -0.094,-0.055 c 3.423,0.221 4.976,-2.44 4.647,-5.347 -0.144,-1.267 -3.963,-5.846 -2.682,-8.243 1.435,-2.307 7.311,-1.289 8.48,-1.799 2.682,-1.168 4.21,-3.843 2.307,-6.697 l -0.141,-0.082 10.731,-18.586 c 0.452,0.127 0.903,0.257 1.36,0.373 v 21.453 h -0.163 c -3.074,1.52 -3.089,4.601 -1.35,6.954 0.758,1.025 6.355,3.082 6.444,5.798 -0.089,2.716 -5.686,4.772 -6.444,5.798 -1.739,2.353 -1.724,5.434 1.35,6.954 h -0.108 c -0.973,0 -3.51,0.754 -3.51,1.685 0,0.931 2.537,1.686 3.51,1.686 h 0.108 c -3.074,2.481 -3.089,7.509 -1.35,11.349 0.758,1.673 6.355,5.03 6.444,9.462 -0.089,4.432 -5.686,7.788 -6.444,9.461 -1.739,3.84 -1.724,8.868 1.35,11.349 h -0.108 c -0.973,0 -3.51,0.755 -3.51,1.686 0,0.931 2.537,1.686 3.51,1.686 -0.973,0 -3.51,0.754 -3.51,1.685 0,0.932 2.537,1.686 3.51,1.686 h 0.108 c -3.074,1.081 -3.089,3.272 -1.35,4.945 0.758,0.729 2.42,2.192 2.447,4.123 -0.027,1.931 -1.689,3.394 -2.447,4.123 -1.739,1.673 -1.724,3.864 1.35,4.945 h -0.108 c -0.265,0 -0.648,0.058 -1.063,0.158 -20.4,-1.638 -39.763,-7.003 -57.411,-15.411 -0.294,-0.276 -0.579,-0.502 -0.798,-0.629 z m 64.971,-113.073 c 0,-3.682 2.984,-6.667 6.666,-6.667 3.682,0 6.667,2.985 6.667,6.667 0,3.682 -2.985,6.666 -6.667,6.666 -3.682,0 -6.666,-2.984 -6.666,-6.666 m 20.18,52.184 c -0.758,-1.026 -6.354,-3.082 -6.444,-5.798 0.09,-2.716 5.686,-4.773 6.444,-5.798 1.738,-2.353 1.725,-5.434 -1.35,-6.954 h -0.164 v -21.453 c 0.457,-0.116 0.909,-0.246 1.361,-0.373 l 10.731,18.586 -0.141,0.082 c -1.903,2.854 -0.374,5.529 2.307,6.697 1.169,0.51 7.044,-0.508 8.48,1.799 1.28,2.397 -2.538,6.976 -2.682,8.243 -0.329,2.907 1.224,5.568 4.647,5.347 l -0.094,0.055 c -0.843,0.486 -2.662,2.408 -2.197,3.215 0.465,0.806 3.04,0.191 3.882,-0.295 l 0.094,-0.055 c -1.423,3.686 1.079,8.048 4.505,10.504 1.493,1.07 8.019,1.178 10.312,4.972 2.138,3.883 -1.031,9.588 -0.85,11.416 0.414,4.194 2.94,8.542 6.844,9.153 l -0.094,0.054 c -0.843,0.486 -2.662,2.409 -2.197,3.215 0.465,0.806 3.041,0.191 3.882,-0.295 -0.841,0.486 -2.662,2.409 -2.196,3.215 0.465,0.806 3.04,0.191 3.882,-0.295 l 0.095,-0.054 c -2.123,2.473 -1.039,4.378 1.302,4.958 1.021,0.252 3.193,0.688 4.181,2.346 0.943,1.686 0.234,3.785 -0.057,4.794 -0.669,2.319 0.438,4.209 3.641,3.608 l -0.094,0.054 c -0.219,0.127 -0.504,0.353 -0.799,0.629 -17.647,8.408 -37.01,13.773 -57.41,15.411 -0.415,-0.1 -0.797,-0.158 -1.063,-0.158 h -0.108 c 3.075,-1.081 3.088,-3.272 1.35,-4.945 -0.758,-0.729 -2.421,-2.192 -2.447,-4.123 0.026,-1.931 1.689,-3.394 2.447,-4.123 1.738,-1.673 1.725,-3.864 -1.35,-4.945 h 0.108 c 0.973,0 3.51,-0.754 3.51,-1.686 0,-0.931 -2.537,-1.685 -3.51,-1.685 0.973,0 3.51,-0.755 3.51,-1.686 0,-0.931 -2.537,-1.686 -3.51,-1.686 h -0.108 c 3.075,-2.481 3.088,-7.509 1.35,-11.349 -0.758,-1.673 -6.354,-5.029 -6.444,-9.461 0.09,-4.432 5.686,-7.789 6.444,-9.462 1.738,-3.84 1.725,-8.868 -1.35,-11.349 h 0.108 c 0.973,0 3.51,-0.755 3.51,-1.686 0,-0.931 -2.537,-1.685 -3.51,-1.685 h -0.108 c 3.075,-1.52 3.088,-4.601 1.35,-6.954 m 62.247,16.677 c -1.493,-1.071 -8.018,-1.179 -10.311,-4.973 -2.139,-3.883 1.03,-9.588 0.849,-11.416 -0.414,-4.194 -2.94,-8.542 -6.843,-9.153 l 0.093,-0.054 c 0.842,-0.486 2.662,-2.409 2.197,-3.215 -0.465,-0.806 -3.04,-0.191 -3.882,0.295 l -0.095,0.054 c 1.903,-2.854 0.375,-5.529 -2.308,-6.697 -1.168,-0.509 -7.044,0.508 -8.478,-1.799 -1.281,-2.397 2.538,-6.976 2.682,-8.243 0.329,-2.907 -1.224,-5.568 -4.647,-5.348 l -0.142,0.082 -10.735,-18.595 c 0.335,-0.326 0.666,-0.657 0.992,-0.992 l 18.595,10.735 -0.081,0.142 c -0.221,3.423 2.44,4.976 5.347,4.646 1.266,-0.144 5.846,-3.962 8.243,-2.681 2.307,1.434 1.29,7.31 1.799,8.479 1.168,2.682 3.843,4.21 6.697,2.308 l -0.054,0.093 c -0.486,0.843 -1.101,3.417 -0.295,3.883 0.806,0.465 2.729,-1.354 3.215,-2.197 l 0.054,-0.094 c 0.611,3.903 4.959,6.43 9.153,6.844 1.828,0.18 7.533,-2.988 11.416,-0.849 3.794,2.293 3.902,8.818 4.973,10.311 2.456,3.425 6.817,5.927 10.503,4.505 l -0.054,0.093 c -0.486,0.843 -1.102,3.418 -0.295,3.883 0.806,0.465 2.729,-1.354 3.215,-2.197 -0.486,0.843 -1.102,3.417 -0.295,3.883 0.806,0.466 2.728,-1.354 3.215,-2.197 l 0.054,-0.094 c -0.602,3.204 1.289,4.312 3.607,3.642 1.01,-0.291 3.108,-1 4.794,-0.057 1.659,0.988 2.095,3.159 2.348,4.18 0.579,2.343 2.483,3.426 4.957,1.303 l -0.054,0.094 c -0.109,0.189 -0.223,0.471 -0.327,0.79 -11.414,16.518 -25.756,30.86 -42.275,42.274 -0.318,0.104 -0.6,0.218 -0.789,0.327 l -0.093,0.054 c 2.122,-2.473 1.039,-4.378 -1.304,-4.958 -1.021,-0.252 -3.192,-0.688 -4.181,-2.347 -0.941,-1.685 -0.233,-3.784 0.058,-4.794 0.67,-2.318 -0.439,-4.209 -3.642,-3.607 l 0.094,-0.055 c 0.843,-0.486 2.662,-2.408 2.197,-3.214 -0.466,-0.807 -3.04,-0.192 -3.883,0.294 0.843,-0.486 2.662,-2.408 2.197,-3.214 -0.465,-0.807 -3.04,-0.192 -3.882,0.295 l -0.094,0.054 c 1.422,-3.686 -1.08,-8.048 -4.505,-10.503 m 56.94,-41.625 0.054,-0.093 c 0.487,-0.843 1.101,-3.417 0.295,-3.883 -0.806,-0.466 -2.728,1.354 -3.214,2.197 0.486,-0.843 1.1,-3.418 0.294,-3.883 -0.806,-0.465 -2.728,1.355 -3.215,2.197 l -0.054,0.094 c -0.611,-3.904 -4.958,-6.43 -9.154,-6.844 -1.827,-0.18 -7.533,2.988 -11.416,0.85 -3.793,-2.293 -3.901,-8.819 -4.971,-10.312 -2.456,-3.425 -6.818,-5.927 -10.504,-4.505 l 0.055,-0.094 c 0.486,-0.842 1.1,-3.416 0.294,-3.882 -0.806,-0.466 -2.728,1.354 -3.214,2.197 l -0.055,0.094 c 0.222,-3.423 -2.439,-4.976 -5.347,-4.647 -1.266,0.144 -5.846,3.963 -8.243,2.682 -2.308,-1.435 -1.29,-7.311 -1.799,-8.48 -1.168,-2.682 -3.843,-4.21 -6.697,-2.307 l -0.082,0.141 -18.587,-10.731 c 0.128,-0.452 0.258,-0.903 0.373,-1.361 h 21.454 v 0.164 c 1.521,3.074 4.602,3.089 6.954,1.35 1.026,-0.758 3.082,-6.355 5.798,-6.444 2.716,0.089 4.773,5.686 5.798,6.444 2.353,1.739 5.434,1.724 6.953,-1.35 v 0.108 c 0,0.973 0.755,3.51 1.687,3.51 0.93,0 1.685,-2.537 1.685,-3.51 v -0.108 c 2.481,3.074 7.509,3.089 11.349,1.35 1.673,-0.758 5.029,-6.355 9.462,-6.444 4.432,0.089 7.788,5.686 9.462,6.444 3.839,1.739 8.867,1.724 11.348,-1.35 v 0.108 c 0,0.973 0.755,3.51 1.686,3.51 0.931,0 1.686,-2.537 1.686,-3.51 0,0.973 0.754,3.51 1.685,3.51 0.932,0 1.686,-2.537 1.686,-3.51 v -0.108 c 1.082,3.074 3.272,3.089 4.945,1.35 0.729,-0.758 2.192,-2.42 4.123,-2.447 1.931,0.027 3.394,1.689 4.123,2.447 1.673,1.739 3.864,1.724 4.945,-1.35 v 0.108 c 0,0.266 0.058,0.649 0.158,1.064 -1.638,20.399 -7.003,39.762 -15.41,57.409 -0.276,0.294 -0.504,0.58 -0.63,0.799 l -0.054,0.094 c 0.601,-3.203 -1.289,-4.311 -3.608,-3.641 -1.009,0.291 -3.108,0.999 -4.794,0.057 -1.658,-0.989 -2.094,-3.16 -2.346,-4.181 -0.58,-2.342 -2.485,-3.425 -4.958,-1.303 m -90.701,-62.57 c 0,3.683 -2.984,6.667 -6.667,6.667 -3.681,0 -6.666,-2.984 -6.666,-6.667 0,-3.681 2.985,-6.666 6.666,-6.666 3.683,0 6.667,2.985 6.667,6.666 m -8.067,-11.893 c -3.188,1.842 -7.266,0.749 -9.106,-2.44 -1.841,-3.188 -0.749,-7.266 2.44,-9.107 3.189,-1.841 7.266,-0.748 9.106,2.44 1.841,3.189 0.749,7.266 -2.44,9.107 m -10.492,-15.373 c -1.841,3.189 -5.918,4.281 -9.108,2.44 -3.188,-1.84 -4.281,-5.918 -2.439,-9.106 1.841,-3.189 5.918,-4.281 9.106,-2.44 3.189,1.84 4.282,5.917 2.441,9.106 m -16.774,-8.067 c 0,3.682 -2.985,6.667 -6.667,6.667 -3.682,0 -6.666,-2.985 -6.666,-6.667 0,-3.682 2.984,-6.667 6.666,-6.667 3.682,0 6.667,2.985 6.667,6.667 m -21,10.507 c -3.189,1.841 -7.266,0.749 -9.107,-2.44 -1.841,-3.189 -0.748,-7.266 2.44,-9.106 3.189,-1.841 7.267,-0.749 9.107,2.44 1.841,3.188 0.749,7.266 -2.44,9.106 m -10.493,10.493 c -1.841,3.189 -5.918,4.282 -9.107,2.44 -3.188,-1.841 -4.28,-5.918 -2.439,-9.107 1.84,-3.188 5.918,-4.281 9.106,-2.44 3.189,1.841 4.281,5.919 2.44,9.107 m -2.44,37.774 c -3.188,1.841 -7.266,0.748 -9.106,-2.441 -1.841,-3.188 -0.749,-7.266 2.439,-9.106 3.189,-1.841 7.266,-0.749 9.107,2.44 1.841,3.188 0.749,7.266 -2.44,9.107 m 15.373,10.493 c -1.84,3.188 -5.918,4.28 -9.107,2.439 -3.188,-1.84 -4.281,-5.918 -2.44,-9.106 1.841,-3.189 5.918,-4.281 9.107,-2.44 3.189,1.84 4.281,5.918 2.44,9.107 m 11.893,-14.934 c -10.493,0 -19,-8.506 -19,-19 0,-10.493 8.507,-19 19,-19 10.494,0 19,8.507 19,19 0,10.494 -8.506,19 -19,19 m 24.827,-4.666 c 1.84,-3.189 5.918,-4.281 9.106,-2.44 3.189,1.84 4.281,5.918 2.44,9.106 -1.84,3.189 -5.917,4.282 -9.106,2.441 -3.189,-1.841 -4.281,-5.919 -2.44,-9.107 m -3.827,22.039 c -3.188,1.841 -7.265,0.749 -9.106,-2.439 -1.842,-3.189 -0.749,-7.267 2.439,-9.107 3.19,-1.841 7.267,-0.749 9.108,2.44 1.841,3.188 0.748,7.266 -2.441,9.106 m -56.333,-43.039 c 3.682,0 6.667,2.985 6.667,6.666 0,3.683 -2.985,6.667 -6.667,6.667 -3.682,0 -6.667,-2.984 -6.667,-6.667 0,-3.681 2.985,-6.666 6.667,-6.666 m -122.102,-42.867 c -6.979,1.74 -13.463,3.481 -19.429,5.17 -3.565,14.207 -5.469,29.067 -5.469,44.363 0,100.54 81.794,182.334 182.333,182.334 100.54,0 182.333,-81.794 182.333,-182.334 0,-15.307 -1.906,-30.175 -5.475,-44.391 -5.967,-1.689 -12.451,-3.428 -19.43,-5.166 3.654,11.58 6.069,23.704 7.073,36.222 -0.1,0.415 -0.158,0.798 -0.158,1.064 v 0.108 c -1.081,-3.075 -3.272,-3.089 -4.945,-1.35 -0.729,0.758 -2.192,2.421 -4.123,2.447 -1.931,-0.026 -3.394,-1.689 -4.123,-2.447 -1.673,-1.739 -3.863,-1.725 -4.945,1.35 v -0.108 c 0,-0.973 -0.754,-3.51 -1.686,-3.51 -0.931,0 -1.685,2.537 -1.685,3.51 0,-0.973 -0.755,-3.51 -1.686,-3.51 -0.931,0 -1.686,2.537 -1.686,3.51 v 0.108 c -2.481,-3.075 -7.509,-3.089 -11.348,-1.35 -1.674,0.758 -5.03,6.354 -9.462,6.444 -4.433,-0.09 -7.789,-5.686 -9.462,-6.444 -3.84,-1.739 -8.868,-1.725 -11.349,1.35 v -0.108 c 0,-0.973 -0.755,-3.51 -1.685,-3.51 -0.932,0 -1.687,2.537 -1.687,3.51 v 0.108 c -1.519,-3.075 -4.6,-3.089 -6.953,-1.35 -1.025,0.758 -3.082,6.354 -5.798,6.444 -2.716,-0.09 -4.772,-5.686 -5.798,-6.444 -2.352,-1.739 -5.433,-1.725 -6.954,1.35 v 0.163 h -21.454 c -0.115,-0.457 -0.245,-0.908 -0.373,-1.36 l 18.587,-10.731 0.082,0.141 c 2.854,1.903 5.529,0.374 6.697,-2.307 0.509,-1.169 -0.509,-7.044 1.799,-8.48 2.397,-1.28 6.977,2.538 8.243,2.682 2.908,0.329 5.569,-1.224 5.347,-4.647 l 0.055,0.094 c 0.486,0.843 2.408,2.662 3.214,2.197 0.806,-0.466 0.192,-3.04 -0.294,-3.882 l -0.055,-0.094 c 3.686,1.423 8.048,-1.079 10.504,-4.505 1.07,-1.493 1.178,-8.019 4.971,-10.312 3.883,-2.138 9.589,1.031 11.416,0.85 3.18,-0.314 6.444,-1.844 8.106,-4.265 -13.675,-2.711 -28.519,-5.212 -44.332,-7.261 -1.477,1.139 -2.548,2.635 -2.828,4.425 l -0.054,-0.093 c -0.486,-0.842 -2.409,-2.662 -3.215,-2.197 -0.806,0.466 -0.191,3.04 0.295,3.882 l 0.054,0.095 c -2.854,-1.903 -5.529,-0.375 -6.697,2.308 -0.509,1.167 0.508,7.044 -1.799,8.478 -2.397,1.281 -6.977,-2.538 -8.243,-2.682 -2.907,-0.329 -5.568,1.224 -5.347,4.647 l 0.081,0.141 -18.595,10.736 c -0.326,-0.335 -0.657,-0.666 -0.992,-0.992 l 10.735,-18.595 0.142,0.081 c 3.423,0.221 4.976,-2.44 4.647,-5.347 -0.144,-1.266 -3.963,-5.846 -2.682,-8.243 0.041,-0.065 0.098,-0.12 0.145,-0.18 -7.832,-0.597 -15.834,-1.067 -23.997,-1.377 -0.107,0.928 0.126,1.944 0.82,2.984 l 0.141,0.082 -10.731,18.587 c -0.452,-0.128 -0.904,-0.258 -1.361,-0.373 v -21.454 h 0.164 c 0.087,-0.043 0.164,-0.093 0.247,-0.139 -4.086,-0.084 -8.206,-0.132 -12.362,-0.133 -4.187,0.001 -8.338,0.05 -12.455,0.135 0.082,0.046 0.157,0.094 0.243,0.137 h 0.163 v 21.454 c -0.457,0.115 -0.908,0.245 -1.36,0.373 l -10.731,-18.587 0.141,-0.082 c 0.693,-1.039 0.927,-2.054 0.82,-2.981 -8.162,0.312 -16.162,0.783 -23.992,1.38 0.046,0.059 0.101,0.111 0.14,0.174 1.281,2.397 -2.538,6.977 -2.681,8.243 -0.33,2.907 1.223,5.568 4.646,5.347 l 0.141,-0.081 10.736,18.595 c -0.335,0.326 -0.666,0.657 -0.992,0.992 l -18.595,-10.736 0.081,-0.141 c 0.221,-3.423 -2.44,-4.976 -5.347,-4.647 -1.267,0.144 -5.846,3.963 -8.243,2.682 -2.307,-1.434 -1.29,-7.311 -1.799,-8.478 -1.168,-2.683 -3.843,-4.211 -6.697,-2.308 l 0.054,-0.095 c 0.486,-0.842 1.101,-3.416 0.295,-3.882 -0.806,-0.465 -2.729,1.355 -3.215,2.197 l -0.054,0.093 c -0.28,-1.784 -1.345,-3.276 -2.815,-4.415 -15.816,2.052 -30.66,4.555 -44.334,7.268 1.664,2.411 4.922,3.934 8.094,4.248 1.828,0.181 7.533,-2.988 11.416,-0.85 3.794,2.293 3.902,8.819 4.972,10.312 2.456,3.426 6.818,5.928 10.504,4.505 l -0.055,0.094 c -0.486,0.842 -1.101,3.416 -0.295,3.882 0.807,0.465 2.729,-1.354 3.215,-2.197 l 0.054,-0.094 c -0.22,3.423 2.441,4.976 5.348,4.647 1.267,-0.144 5.846,-3.962 8.243,-2.682 2.307,1.436 1.29,7.311 1.799,8.48 1.168,2.681 3.843,4.21 6.697,2.307 l 0.082,-0.141 18.586,10.731 c -0.127,0.452 -0.257,0.903 -0.373,1.36 h -21.453 v -0.163 c -1.52,-3.075 -4.601,-3.089 -6.954,-1.35 -1.025,0.758 -3.082,6.354 -5.798,6.444 -2.716,-0.09 -4.772,-5.686 -5.798,-6.444 -2.353,-1.739 -5.434,-1.725 -6.954,1.35 v -0.108 c 0,-0.973 -0.754,-3.51 -1.685,-3.51 -0.931,0 -1.686,2.537 -1.686,3.51 v 0.108 c -2.481,-3.075 -7.509,-3.089 -11.349,-1.35 -1.673,0.758 -5.03,6.354 -9.462,6.444 -4.432,-0.09 -7.788,-5.686 -9.461,-6.444 -3.84,-1.739 -8.868,-1.725 -11.349,1.35 v -0.108 c 0,-0.973 -0.755,-3.51 -1.686,-3.51 -0.931,0 -1.686,2.537 -1.686,3.51 0,-0.973 -0.754,-3.51 -1.686,-3.51 -0.931,0 -1.685,2.537 -1.685,3.51 v 0.108 c -1.081,-3.075 -3.273,-3.089 -4.945,-1.35 -0.729,0.758 -2.192,2.421 -4.123,2.447 -1.931,-0.026 -3.394,-1.689 -4.123,-2.447 -1.673,-1.739 -3.864,-1.725 -4.945,1.35 v -0.108 c 0,-0.266 -0.058,-0.648 -0.159,-1.063 1.005,-12.509 3.417,-24.625 7.066,-36.199 m 480.468,49.533 c -0.731,-5.547 -7.759,-13.758 -21.552,-13.758 -13.793,0 -28.448,6.88 -40.518,6.88 -12.068,0 -31.402,-0.645 -34.379,-3.435 -2.975,-2.789 -2.045,-5.207 -3.719,-5.207 -1.674,0 -5.022,3.72 -5.022,3.72 v -2.233 H 70.117 c -0.502,-7.448 -1.411,-14.786 -2.682,-22 -5.069,-1.717 -11.166,-3.684 -18.181,-5.786 3.03,13.462 4.639,27.455 4.639,41.819 0,104.951 -85.382,190.334 -190.333,190.334 -104.95,0 -190.333,-85.383 -190.333,-190.334 0,-14.353 1.607,-28.336 4.633,-41.79 -7.018,2.104 -13.115,4.074 -18.179,5.789 -1.268,7.205 -2.176,14.531 -2.676,21.968 h -11.287 v 2.233 c 0,0 -3.348,-3.72 -5.022,-3.72 -1.674,0 -0.744,2.418 -3.72,5.207 -2.976,2.79 -22.31,3.435 -34.379,3.435 -12.069,0 -26.724,-6.88 -40.517,-6.88 -13.793,0 -20.821,8.211 -21.552,13.758 0.731,5.549 7.759,13.759 21.552,13.759 13.793,0 28.448,-6.879 40.517,-6.879 12.069,0 31.403,0.644 34.379,3.433 2.976,2.79 2.046,5.208 3.72,5.208 1.674,0 5.022,-3.72 5.022,-3.72 v 2.232 h 11.287 c 1.849,27.5 9.089,53.543 20.675,77.082 l -9.793,5.654 1.115,1.933 c 0,0 -4.758,-1.548 -6.208,-0.711 -1.45,0.837 0.564,2.466 -0.618,6.37 -1.182,3.904 -17.604,14.129 -28.056,20.163 -10.452,6.035 -26.583,7.405 -38.529,14.302 -11.945,6.896 -13.926,17.52 -11.785,22.691 3.407,4.439 13.599,8.036 25.544,1.139 11.945,-6.896 21.197,-20.181 31.649,-26.216 10.452,-6.035 27.518,-15.144 31.49,-14.216 3.972,0.928 4.376,3.487 5.825,2.65 1.45,-0.837 2.49,-5.732 2.49,-5.732 l 1.115,1.933 9.825,-5.673 c 14.987,22.241 34.174,41.428 56.415,56.415 l -5.673,9.825 1.933,1.115 c 0,0 -4.895,1.04 -5.732,2.49 -0.837,1.449 1.722,1.853 2.65,5.825 0.928,3.972 -8.181,21.038 -14.216,31.49 -6.035,10.452 -19.319,19.704 -26.216,31.649 -6.897,11.945 -3.3,22.137 1.139,25.544 5.171,2.141 15.795,0.16 22.691,-11.785 6.897,-11.946 8.267,-28.077 14.302,-38.529 6.034,-10.452 16.259,-26.874 20.163,-28.056 3.903,-1.182 5.533,0.832 6.37,-0.618 0.837,-1.45 -0.711,-6.208 -0.711,-6.208 l 1.933,1.115 5.654,-9.793 c 23.539,11.586 49.582,18.826 77.082,20.675 v 11.287 h 2.232 c 0,0 -3.721,3.348 -3.721,5.022 0,1.674 2.418,0.744 5.208,3.72 2.79,2.976 3.434,22.31 3.434,34.379 0,12.069 -6.879,26.724 -6.879,40.517 0,13.793 8.21,20.821 13.758,21.552 5.548,-0.731 13.759,-7.759 13.759,-21.552 0,-13.793 -6.88,-28.448 -6.88,-40.517 0,-12.069 0.645,-31.403 3.435,-34.379 2.789,-2.976 5.207,-2.046 5.207,-3.72 0,-1.674 -3.72,-5.022 -3.72,-5.022 h 2.233 v -11.287 c 27.499,-1.849 53.542,-9.089 77.081,-20.675 l 5.654,9.793 1.933,-1.115 c 0,0 -1.547,4.758 -0.71,6.208 0.837,1.45 2.465,-0.564 6.369,0.618 3.904,1.182 14.129,17.604 20.164,28.056 6.034,10.452 7.404,26.583 14.301,38.529 6.896,11.945 17.52,13.926 22.691,11.785 4.44,-3.407 8.035,-13.599 1.139,-25.544 C 19.319,464.827 6.034,455.575 0,445.123 c -6.034,-10.452 -15.145,-27.518 -14.216,-31.49 0.928,-3.972 3.487,-4.376 2.651,-5.825 -0.837,-1.45 -5.733,-2.49 -5.733,-2.49 l 1.933,-1.115 -5.672,-9.825 C 1.203,379.391 20.39,360.205 35.377,337.963 l 9.824,5.673 1.116,-1.933 c 0,0 1.039,4.895 2.49,5.732 1.449,0.837 1.853,-1.722 5.825,-2.65 3.972,-0.928 21.038,8.181 31.49,14.216 10.452,6.035 19.704,19.32 31.649,26.216 11.945,6.897 22.136,3.3 25.543,-1.139 2.142,-5.171 0.161,-15.795 -11.785,-22.691 -11.944,-6.897 -28.076,-8.267 -38.528,-14.302 -10.452,-6.034 -26.874,-16.259 -28.056,-20.163 -1.182,-3.904 0.832,-5.533 -0.618,-6.37 -1.449,-0.837 -6.209,0.711 -6.209,0.711 l 1.116,-1.933 -9.793,-5.654 c 11.586,-23.539 18.826,-49.582 20.676,-77.082 h 11.286 v -2.232 c 0,0 3.348,3.72 5.022,3.72 1.674,0 0.744,-2.418 3.719,-5.208 2.977,-2.789 22.311,-3.433 34.379,-3.433 12.07,0 26.725,6.879 40.518,6.879 13.793,0 20.821,-8.21 21.552,-13.759"
             style="fill:#1c75bc;fill-opacity:1;fill-rule:nonzero;stroke:none"
             id="path8489" />
        </g>
        <g
           id="g8491"
           transform="translate(175.5078,271.7129)">
          <path
             d="m 0,0 v 91.322 c 0,0 95.783,-40.231 224.538,-40.274 128.756,0.043 224.538,40.274 224.538,40.274 V 0 c 0,0 -90.296,-40.232 -224.538,-40.274 C 90.296,-40.232 0,0 0,0"
             style="fill:#8dc63f;fill-opacity:1;fill-rule:nonzero;stroke:none"
             id="path8493" />
        </g>
        <g
           id="g8495"
           transform="translate(197.5415,254.8848)">
          <path
             d="m 0,0 c -15.369,5.163 -24.168,9.021 -25.289,9.521 l -4.745,2.114 V 80.313 C -50.02,72.67 -82.661,56.132 -82.661,56.132 L -59.69,48.199 -82.661,-32.92 c 0,0 47.716,24.538 82.661,32.92"
             style="fill:#8dc63f;fill-opacity:1;fill-rule:nonzero;stroke:none"
             id="path8497" />
        </g>
        <g
           id="g8499"
           transform="translate(685.1191,311.0166)">
          <path
             d="m 0,0 c 0,0 -32.544,16.488 -52.537,24.147 l 0.002,-68.644 -4.744,-2.114 c -1.122,-0.5 -9.936,-4.364 -25.327,-9.534 C -47.666,-64.538 0,-89.052 0,-89.052 l -22.971,81.119 z"
             style="fill:#8dc63f;fill-opacity:1;fill-rule:nonzero;stroke:none"
             id="path8501" />
        </g>
        <g
           id="g8503">
          <g
             id="g8505" />
          <g
             id="g8517">
            <g
               clip-path="url(#clipPath8509)"
               id="g8515">
              <g
                 transform="translate(487.8535,364.4463)"
                 id="g8513">
                <path
                   d="m 0,0 c -0.381,2.618 -2.746,3.788 -5.305,3.498 -0.972,-0.11 -3.897,-2.381 -6.289,-2.851 0.17,-1.407 0.558,-2.69 1.48,-3.263 2.396,-1.281 6.975,2.538 8.242,2.681 C -1.226,0.139 -0.593,0.113 0,0 m -41.533,-18.163 1.989,-3.444 0.141,0.082 c 0.41,0.026 0.792,0.008 1.148,-0.043 -0.324,1.707 -1.417,3.071 -3.278,3.405 m -70.154,26.844 c 3.189,1.841 4.282,5.918 2.44,9.106 -0.738,1.28 -1.84,2.216 -3.098,2.766 1.344,-3.07 0.196,-6.725 -2.775,-8.44 -1.908,-1.101 -4.133,-1.145 -6.008,-0.325 0.099,-0.225 0.208,-0.449 0.335,-0.667 1.84,-3.188 5.918,-4.281 9.106,-2.44 m 48.266,-12.933 c 3.189,1.841 4.281,5.918 2.441,9.107 -0.739,1.28 -1.841,2.214 -3.099,2.765 1.344,-3.07 0.195,-6.724 -2.774,-8.439 -1.91,-1.102 -4.133,-1.146 -6.008,-0.326 0.098,-0.225 0.208,-0.449 0.334,-0.667 1.841,-3.189 5.918,-4.282 9.106,-2.44 M -0.336,22.04 c 0.557,-0.411 1.155,-0.721 1.764,-0.919 -0.984,1.637 -2.234,3.499 -3.694,3.861 0.823,-1.33 1.477,-2.607 1.93,-2.942 M -96.313,-1.812 c 1.84,3.188 0.748,7.266 -2.441,9.107 -0.218,0.126 -0.441,0.235 -0.667,0.334 0.82,-1.875 0.776,-4.1 -0.326,-6.008 -1.714,-2.971 -5.369,-4.119 -8.439,-2.774 0.55,-1.258 1.486,-2.361 2.766,-3.099 3.188,-1.842 7.266,-0.749 9.107,2.44 M 79.922,44.284 v 0.108 c 0,0.266 0.058,0.649 0.159,1.065 -1.64,20.398 -7.004,39.761 -15.411,57.408 -0.276,0.294 -0.503,0.58 -0.63,0.8 l -0.054,0.093 c 0.237,-1.257 0.084,-2.188 -0.324,-2.819 7.011,-16.182 11.511,-33.693 12.985,-52.049 -0.1,-0.416 -0.158,-0.799 -0.158,-1.065 v -0.108 c -1.081,3.075 -3.272,3.089 -4.945,1.35 -0.729,-0.757 -2.192,-2.42 -4.123,-2.447 -1.931,0.027 -3.394,1.69 -4.122,2.447 -1.674,1.739 -3.864,1.725 -4.946,-1.35 v 0.108 c 0,0.973 -0.754,3.51 -1.685,3.51 -0.932,0 -1.686,-2.537 -1.686,-3.51 0,0.973 -0.755,3.51 -1.686,3.51 -0.931,0 -1.686,-2.537 -1.686,-3.51 v -0.108 c -2.481,3.075 -7.508,3.089 -11.348,1.35 -1.674,-0.757 -5.03,-6.355 -9.462,-6.443 -4.433,0.088 -7.789,5.686 -9.462,6.443 -3.84,1.739 -8.868,1.725 -11.349,-1.35 v 0.108 c 0,0.973 -0.755,3.51 -1.685,3.51 -0.932,0 -1.687,-2.537 -1.687,-3.51 v -0.108 c -1.519,3.075 -4.6,3.089 -6.953,1.35 -1.025,-0.757 -3.082,-6.355 -5.798,-6.443 -0.147,0.004 -0.292,0.032 -0.435,0.068 1.04,-1.684 2.351,-3.452 3.868,-3.502 2.716,0.089 4.772,5.687 5.798,6.444 2.352,1.738 5.433,1.724 6.954,-1.35 v 0.108 c 0,0.973 0.755,3.51 1.685,3.51 0.932,0 1.686,-2.537 1.686,-3.51 v -0.108 c 2.481,3.074 7.51,3.088 11.349,1.35 1.673,-0.757 5.03,-6.355 9.461,-6.444 4.433,0.089 7.79,5.687 9.462,6.444 3.84,1.738 8.869,1.724 11.349,-1.35 v 0.108 c 0,0.973 0.755,3.51 1.685,3.51 0.932,0 1.687,-2.537 1.687,-3.51 0,0.973 0.754,3.51 1.686,3.51 0.93,0 1.685,-2.537 1.685,-3.51 v -0.108 c 1.081,3.074 3.273,3.088 4.946,1.35 0.729,-0.757 2.192,-2.42 4.123,-2.447 1.93,0.027 3.393,1.69 4.122,2.447 1.673,1.738 3.864,1.724 4.945,-1.35 M -30.731,-14.045 c -0.052,0.357 -0.07,0.738 -0.043,1.149 l 0.082,0.141 -3.445,1.988 c 0.334,-1.861 1.699,-2.954 3.406,-3.278 m 15.254,-8.924 c -0.274,1.71 0.417,6.786 -1.708,8.108 -0.555,0.297 -1.231,0.311 -1.954,0.17 0.256,-2.117 0.015,-4.515 0.321,-5.216 0.684,-1.572 1.888,-2.741 3.341,-3.062 m -80.943,7.575 c -0.458,0.116 -0.909,0.246 -1.361,0.374 l -2.072,-3.59 v -14.804 h -0.164 c -0.086,-0.043 -0.162,-0.091 -0.243,-0.137 1.274,-0.026 2.558,-0.042 3.84,-0.06 z m 8.567,233.281 c -100.54,0 -182.334,-81.794 -182.334,-182.333 0,-15.297 1.904,-30.157 5.469,-44.364 0.917,-0.259 1.869,-0.522 2.811,-0.784 -3.152,13.404 -4.847,27.363 -4.847,41.715 0,100.539 81.795,182.333 182.333,182.333 49.399,0 94.263,-19.755 127.132,-51.769 -33.142,34.03 -79.424,55.202 -130.564,55.202 m -114.275,-238.12 c 1.828,0.179 7.533,-2.99 11.416,-0.85 3.794,2.293 3.902,8.818 4.973,10.311 2.455,3.425 6.817,5.927 10.503,4.504 l -0.054,0.095 c -0.487,0.842 -1.102,3.417 -0.295,3.882 0.806,0.466 2.728,-1.354 3.214,-2.196 l 0.055,-0.094 c -0.221,3.423 2.44,4.976 5.347,4.646 1.266,-0.143 5.846,-3.962 8.243,-2.681 2.307,1.434 1.29,7.31 1.799,8.479 1.168,2.682 3.844,4.21 6.698,2.307 l 0.081,-0.141 18.587,10.732 c -0.128,0.452 -0.258,0.902 -0.374,1.36 h -6.649 l -14.997,-8.659 -0.082,0.142 c -2.854,1.902 -5.529,0.374 -6.697,-2.308 -0.51,-1.169 0.508,-7.044 -1.799,-8.48 -2.397,-1.28 -6.977,2.539 -8.243,2.682 -2.907,0.329 -5.568,-1.224 -5.347,-4.646 l -0.055,0.093 c -0.486,0.843 -2.408,2.662 -3.214,2.198 -0.807,-0.466 -0.192,-3.04 0.294,-3.883 l 0.055,-0.094 c -3.686,1.423 -8.048,-1.079 -10.504,-4.505 -1.07,-1.493 -1.178,-8.018 -4.972,-10.311 -3.883,-2.139 -9.588,1.03 -11.416,0.849 -3.172,-0.313 -6.43,-1.837 -8.094,-4.248 1.928,-0.383 3.886,-0.76 5.86,-1.133 1.645,1.075 3.672,1.751 5.667,1.949 m 159.707,52.354 c 0,2.731 -1.643,5.075 -3.994,6.105 0.359,-0.818 0.562,-1.721 0.562,-2.672 0,-3.682 -2.985,-6.667 -6.667,-6.667 -0.952,0 -1.854,0.203 -2.672,0.561 1.03,-2.35 3.374,-3.994 6.105,-3.994 3.682,0 6.666,2.985 6.666,6.667 m -127.982,120.624 c -0.896,-0.748 -2.078,-2.174 -1.692,-2.843 0.224,-0.388 0.939,-0.442 1.712,-0.345 -0.191,0.875 1.44,2.589 2.232,3.047 l 0.093,0.054 c -0.972,-0.183 -1.75,-0.133 -2.345,0.087 m 1.902,-5.242 c 0.45,0.857 1.462,1.85 2.036,2.181 -0.401,-0.231 -1.194,-0.488 -1.966,-0.611 -0.086,-0.518 -0.11,-1.043 -0.07,-1.57 m 2.797,-122.521 c 0.822,-1.33 1.476,-2.607 1.929,-2.942 0.557,-0.411 1.155,-0.721 1.763,-0.919 -0.982,1.637 -2.233,3.499 -3.692,3.861 M -13.676,181.21 c -1.767,0.843 -3.557,1.646 -5.359,2.426 -0.976,-0.63 -1.229,-1.876 -0.822,-3.283 0.291,-1.01 1,-3.109 0.057,-4.794 -0.988,-1.659 -3.16,-2.095 -4.18,-2.347 -2.342,-0.58 -3.426,-2.484 -1.304,-4.958 l -0.093,0.054 c -0.843,0.486 -3.418,1.101 -3.883,0.295 -0.466,-0.806 1.355,-2.728 2.197,-3.215 -0.842,0.487 -3.417,1.102 -3.883,0.295 -0.465,-0.806 1.354,-2.728 2.197,-3.215 l 0.094,-0.054 c -3.904,-0.611 -6.43,-4.958 -6.844,-9.153 -0.181,-1.828 2.988,-7.533 0.85,-11.416 -2.293,-3.794 -8.819,-3.902 -10.312,-4.972 -3.426,-2.456 -5.928,-6.818 -4.505,-10.503 l -0.094,0.054 c -0.842,0.486 -3.416,1.101 -3.882,0.295 -0.465,-0.807 1.354,-2.729 2.197,-3.215 l 0.094,-0.054 c -3.423,0.22 -4.976,-2.441 -4.647,-5.347 0.144,-1.268 3.962,-5.847 2.682,-8.244 -1.436,-2.307 -7.311,-1.289 -8.48,-1.798 -2.681,-1.168 -4.21,-3.844 -2.307,-6.698 l 0.141,-0.081 -8.659,-14.997 v -6.65 c 0.458,-0.115 0.908,-0.245 1.361,-0.373 l 10.731,18.587 -0.142,0.081 c -1.902,2.854 -0.374,5.529 2.308,6.697 1.17,0.51 7.045,-0.508 8.479,1.8 1.282,2.396 -2.538,6.976 -2.68,8.242 -0.33,2.907 1.222,5.568 4.645,5.348 l -0.094,0.054 c -0.842,0.486 -2.662,2.409 -2.196,3.215 0.466,0.806 3.04,0.191 3.883,-0.295 l 0.093,-0.054 c -1.422,3.685 1.08,8.047 4.506,10.502 1.492,1.071 8.017,1.179 10.31,4.973 2.14,3.883 -1.029,9.588 -0.849,11.416 0.415,4.194 2.941,8.542 6.843,9.153 l -0.093,0.055 c -0.842,0.486 -2.662,2.408 -2.197,3.214 0.466,0.807 3.04,0.191 3.883,-0.295 -0.843,0.486 -2.663,2.409 -2.197,3.215 0.466,0.807 3.04,0.191 3.883,-0.295 l 0.093,-0.054 c -2.122,2.473 -1.039,4.378 1.304,4.958 1.021,0.252 3.192,0.688 4.18,2.346 0.942,1.686 0.234,3.785 -0.058,4.795 -0.669,2.318 0.439,4.208 3.642,3.607 l -0.093,0.054 c -0.22,0.127 -0.506,0.353 -0.8,0.629 M -57.154,8.681 c 3.188,-1.841 7.265,-0.748 9.107,2.44 1.841,3.189 0.748,7.266 -2.44,9.107 -0.219,0.126 -0.443,0.235 -0.668,0.334 0.82,-1.875 0.776,-4.099 -0.325,-6.008 -1.715,-2.97 -5.37,-4.119 -8.44,-2.775 0.551,-1.257 1.485,-2.359 2.766,-3.098 m 51.603,-36.898 c -0.092,0.286 -0.17,0.579 -0.217,0.883 l -0.054,-0.094 c -0.129,-0.224 -0.363,-0.517 -0.648,-0.818 0.034,-0.026 0.064,-0.055 0.098,-0.081 0.275,0.036 0.546,0.074 0.821,0.11 m -75.635,99.104 c 0,-3.682 -2.986,-6.667 -6.667,-6.667 -0.952,0 -1.854,0.203 -2.673,0.562 1.03,-2.351 3.375,-3.995 6.105,-3.995 3.683,0 6.667,2.985 6.667,6.667 0,2.731 -1.643,5.075 -3.994,6.106 0.359,-0.819 0.562,-1.722 0.562,-2.673 m -151.838,32.572 c 0.052,0.011 0.106,0.026 0.159,0.039 0.013,0.087 0.021,0.17 0.038,0.26 l -0.054,-0.093 c -0.035,-0.061 -0.094,-0.136 -0.143,-0.206 m 101.463,-57.978 -3.777,2.181 c -0.01,-0.036 -0.02,-0.072 -0.03,-0.108 h -21.453 v 0.163 c -1.52,3.075 -4.601,3.089 -6.954,1.35 -1.025,-0.757 -3.082,-6.355 -5.798,-6.443 -0.147,0.004 -0.292,0.032 -0.435,0.068 1.041,-1.684 2.351,-3.452 3.868,-3.502 2.716,0.089 4.773,5.687 5.798,6.444 2.353,1.738 5.434,1.724 6.954,-1.35 v -0.163 h 21.453 c 0.116,0.457 0.246,0.908 0.374,1.36 m -40.228,110.415 c -0.897,-0.632 -2.424,-2.326 -1.992,-3.074 0.373,-0.646 2.087,-0.378 3.192,0.003 -1.113,0.514 -1.491,1.69 -1.2,3.071 m -54.036,-55.287 c 0.138,-0.455 0.237,-0.874 0.313,-1.182 0.429,-1.729 1.58,-2.768 3.148,-2.341 -0.315,1.065 -0.871,2.379 -2.061,3.088 -0.447,0.25 -0.924,0.379 -1.4,0.435 m 51.185,62.483 c 0.156,-1.321 -0.278,-2.652 -0.492,-3.394 -0.651,-2.252 0.383,-4.094 3.381,-3.645 0.018,0.071 0.031,0.14 0.052,0.212 0.291,1.01 1,3.109 0.057,4.795 -0.689,1.156 -1.949,1.712 -2.998,2.032 m -3.368,4.891 c -0.507,-0.35 -1.005,-0.712 -1.508,-1.067 0.086,-0.026 0.171,-0.054 0.261,-0.077 0.288,-0.071 0.673,-0.161 1.092,-0.285 0.151,0.555 0.482,1.163 1.038,1.81 l -0.094,-0.054 c -0.188,-0.109 -0.47,-0.223 -0.789,-0.327 m 81.786,-353.705 h -2.232 v 11.286 c -1.147,0.078 -2.289,0.178 -3.432,0.274 v -8.127 h 2.232 c 0,0 -3.72,-3.348 -3.72,-5.022 0,-1.369 1.616,-0.999 3.731,-2.444 0.877,1.74 3.421,4.033 3.421,4.033 M -407.453,32.121 c 0.731,5.548 7.759,13.758 21.552,13.758 13.793,0 28.448,-6.879 40.517,-6.879 12.069,0 31.404,0.644 34.379,3.434 2.976,2.79 2.046,5.208 3.72,5.208 1.674,0 5.022,-3.72 5.022,-3.72 v 2.231 h 11.286 c 1.851,27.5 9.09,53.543 20.676,77.082 l -3.976,2.296 C -285.54,102.29 -292.589,76.646 -294.409,49.586 h -11.287 v -2.231 c 0,0 -3.348,3.72 -5.022,3.72 -1.674,0 -0.744,-2.418 -3.719,-5.208 -2.977,-2.79 -22.311,-3.434 -34.38,-3.434 -12.069,0 -26.724,6.88 -40.517,6.88 -13.793,0 -20.821,-8.211 -21.552,-13.759 0.367,-2.782 2.316,-6.231 5.906,-8.98 -1.425,1.891 -2.248,3.844 -2.473,5.547 m 140.275,119.141 1.117,1.933 9.824,-5.673 c 14.988,22.242 34.174,41.428 56.415,56.415 l -5.673,9.825 1.933,1.115 c 0,0 -3.535,0.754 -5.108,1.871 l 5.415,-9.378 c -22.241,-14.987 -41.428,-34.174 -56.415,-56.414 l -9.378,5.414 c 1.117,-1.573 1.87,-5.108 1.87,-5.108 m -21.442,-17.718 c 0.645,-0.372 1.947,-0.271 3.192,-0.045 0.046,0.81 -0.015,1.789 -0.377,2.982 -0.322,1.064 -1.78,2.598 -3.934,4.387 0.24,-0.347 0.415,-0.669 0.501,-0.953 1.182,-3.904 -0.832,-5.534 0.618,-6.371 m 41.544,-355.634 c 6.897,11.946 20.182,21.197 26.216,31.65 6.035,10.452 15.144,27.517 14.216,31.49 -0.928,3.972 -3.487,4.375 -2.65,5.825 0.837,1.449 5.732,2.488 5.732,2.488 l -1.933,1.117 5.673,9.824 c -1.302,0.878 -2.584,1.781 -3.863,2.689 l -5.243,-9.08 1.933,-1.116 c 0,0 -4.895,-1.039 -5.732,-2.489 -0.837,-1.45 1.722,-1.853 2.65,-5.826 0.928,-3.971 -8.181,-21.038 -14.216,-31.49 -6.035,-10.452 -19.319,-19.704 -26.216,-31.649 -6.897,-11.945 -3.3,-22.136 1.139,-25.543 0.233,-0.097 0.479,-0.182 0.733,-0.26 -2.812,4.794 -3.821,13.048 1.561,22.37 M 80.081,18.785 C 79.98,19.2 79.922,19.584 79.922,19.85 v 0.108 C 79.095,17.605 77.617,17.048 76.22,17.694 75.038,6.776 72.786,-3.824 69.574,-14.004 c 1.637,0.407 3.241,0.816 4.823,1.223 2.878,10.161 4.812,20.715 5.684,31.566 m -360.363,111.664 0.816,-0.471 0.488,0.844 c 0,0 -0.54,-0.174 -1.304,-0.373 m -66.287,-195.245 -4.013,1.386 -22.391,-79.071 c 0,0 1.871,0.962 5.132,2.564 z M 54.404,-235.849 c -6.896,11.946 -8.266,28.078 -14.301,38.529 -5.594,9.691 -14.788,24.505 -19.209,27.555 4.778,-5.755 11.385,-16.516 15.776,-24.122 6.035,-10.452 7.405,-26.584 14.302,-38.528 1.94,-3.362 4.177,-5.935 6.504,-7.848 -1.079,1.291 -2.113,2.753 -3.072,4.414 m 89.015,132.375 4.745,2.115 -0.003,68.643 c 14.963,-5.731 36.95,-16.406 47.071,-21.417 l 2.034,0.703 c 0,0 -32.544,16.489 -52.538,24.148 l 0.002,-68.645 -4.744,-2.114 c -1.122,-0.5 -9.935,-4.363 -25.327,-9.533 2.473,-0.595 5.011,-1.272 7.59,-2.013 12.809,4.443 20.154,7.66 21.17,8.113 M -98.179,-269.36 c 0,13.794 6.879,28.448 6.879,40.517 0,12.07 -0.644,31.404 -3.433,34.379 -0.937,1 -1.83,1.554 -2.605,1.919 2.091,-5.558 2.605,-22.098 2.605,-32.864 0,-12.069 -6.879,-26.725 -6.879,-40.518 0,-9.559 3.944,-15.863 8.212,-19.08 -2.736,3.572 -4.779,8.768 -4.779,15.647 m 47.033,325.246 c 1.344,-3.07 0.196,-6.724 -2.775,-8.439 -1.908,-1.102 -4.133,-1.146 -6.008,-0.325 0.099,-0.226 0.208,-0.45 0.334,-0.668 1.841,-3.188 5.918,-4.281 9.108,-2.44 3.188,1.841 4.281,5.918 2.44,9.107 -0.739,1.279 -1.842,2.215 -3.099,2.765 m 65.427,-218.323 -1.932,-1.116 -1.874,3.245 c -0.397,-1.518 -0.894,-3.941 -0.337,-4.905 0.581,-1.007 1.546,-0.345 3.386,-0.241 0.282,1.552 0.757,3.017 0.757,3.017 m -7.587,8.676 c -0.377,-0.184 -0.759,-0.359 -1.137,-0.543 l 3.358,-5.816 1.088,0.628 z M -360.237,177.45 c -4.886,5.94 -5.476,12.471 -3.938,16.187 3.407,4.439 13.599,8.036 25.544,1.139 11.945,-6.896 21.197,-20.181 31.649,-26.216 10.452,-6.035 27.518,-15.144 31.49,-14.216 2.436,0.57 3.529,1.75 4.345,2.387 -0.443,1.45 -1.132,3.223 -1.953,3.696 -1.449,0.837 -1.853,-1.721 -5.825,-2.65 -3.971,-0.928 -21.037,8.181 -31.49,14.216 -10.452,6.035 -19.704,19.32 -31.649,26.217 -11.945,6.896 -22.137,3.299 -25.544,-1.14 -1.843,-4.451 -0.624,-12.943 7.371,-19.62 m 66.106,-159.362 c 0.529,-6.26 1.325,-12.443 2.398,-18.535 0.971,-0.329 1.993,-0.67 3.04,-1.018 -1.055,6.427 -1.839,12.943 -2.284,19.553 z m -18.388,4.548 c 0.721,-1.533 0.689,-2.603 1.801,-2.603 0.288,0 0.627,0.115 0.989,0.298 -0.322,0.472 -0.733,0.968 -1.276,1.477 -0.321,0.3 -0.842,0.575 -1.514,0.828 m 343.937,182.058 -0.436,-0.757 c 10.447,-7.04 20.21,-15.018 29.191,-23.792 -8.813,9.02 -18.432,17.248 -28.755,24.549 M -87.81,-141.008 c -18.525,0.006 -36.195,0.76 -52.912,2.055 5.733,-1.74 11.587,-3.199 17.541,-4.375 12.466,-0.708 25.407,-1.108 38.804,-1.112 h 0.005 c 10.062,0.003 19.86,0.233 29.401,0.644 6.788,1.244 13.449,2.86 19.955,4.833 -16.681,-1.288 -34.309,-2.039 -52.789,-2.045 z M 121.862,49.586 c 0.096,-1.143 0.197,-2.284 0.274,-3.433 h 11.286 v -2.231 c 0,0 2.293,2.544 4.033,3.421 -1.445,2.115 -1.075,3.732 -2.444,3.732 -1.674,0 -5.022,-3.72 -5.022,-3.72 v 2.231 z M 48.365,168.34 C 81.827,134.022 102.48,87.158 102.48,35.554 c 0,-14.365 -1.61,-28.358 -4.64,-41.82 1.527,0.457 3.003,0.908 4.441,1.351 2.375,11.984 3.631,24.365 3.631,37.036 0,53.346 -22.069,101.627 -57.547,136.219 m -118.753,70.336 c 27.499,-1.849 53.542,-9.089 77.082,-20.674 l 5.655,9.792 1.932,-1.115 c 0,0 -1.548,4.758 -0.711,6.208 0.837,1.45 2.466,-0.564 6.37,0.618 3.905,1.182 14.129,17.604 20.163,28.057 6.035,10.451 7.405,26.583 14.301,38.528 6.587,11.408 16.571,13.725 21.959,12.045 -0.792,1.349 -1.725,2.425 -2.701,3.173 -5.17,2.141 -15.794,0.16 -22.69,-11.785 C 44.075,291.578 42.705,275.446 36.67,264.994 30.636,254.542 20.411,238.12 16.507,236.938 c -3.903,-1.182 -5.532,0.832 -6.369,-0.618 -0.837,-1.449 0.71,-6.208 0.71,-6.208 l -1.933,1.116 -5.654,-9.793 c -22.557,11.101 -47.416,18.198 -73.649,20.401 z m -29.266,14.72 h -2.232 v -11.287 c -27.06,-1.82 -52.703,-8.869 -75.945,-20.131 l 2.296,-3.976 c 23.539,11.585 49.582,18.825 77.081,20.674 v 11.287 h 2.232 c 0,0 -3.719,3.349 -3.719,5.022 0,1.674 2.418,0.744 5.208,3.72 2.789,2.976 3.433,22.31 3.433,34.379 0,12.069 -6.879,26.724 -6.879,40.517 0,13.794 8.21,20.821 13.758,21.552 1.703,-0.224 3.657,-1.048 5.547,-2.472 -2.749,3.589 -6.198,5.539 -8.979,5.905 -5.549,-0.731 -13.759,-7.758 -13.759,-21.552 0,-13.793 6.879,-28.448 6.879,-40.517 0,-12.069 -0.644,-31.403 -3.433,-34.379 -2.79,-2.976 -5.208,-2.046 -5.208,-3.72 0,-1.674 3.72,-5.022 3.72,-5.022 m -89.127,-19.891 c 1.193,-0.362 2.172,-0.422 2.983,-0.377 0.226,1.246 0.326,2.547 -0.047,3.192 -0.837,1.45 -2.465,-0.564 -6.369,0.618 -0.284,0.086 -0.606,0.262 -0.953,0.501 1.789,-2.154 3.322,-3.612 4.386,-3.934 m 276.178,-85.983 9.824,5.673 1.115,-1.933 c 0,0 1.04,4.895 2.489,5.732 1.45,0.837 1.854,-1.722 5.825,-2.65 3.973,-0.928 21.039,8.181 31.491,14.216 10.452,6.035 19.704,19.32 31.649,26.216 9.322,5.382 17.575,4.374 22.37,1.561 -0.078,0.254 -0.163,0.5 -0.26,0.733 -3.407,4.439 -13.597,8.036 -25.543,1.14 -11.945,-6.897 -21.197,-20.182 -31.649,-26.217 -10.452,-6.035 -27.518,-15.144 -31.49,-14.216 -3.973,0.929 -4.376,3.487 -5.825,2.65 -1.45,-0.837 -2.49,-5.732 -2.49,-5.732 l -1.116,1.933 -9.067,-5.235 c 0.905,-1.281 1.8,-2.569 2.677,-3.871 m -311.69,110.593 c 6.035,-10.452 15.144,-27.518 14.216,-31.49 -0.928,-3.972 -3.487,-4.375 -2.65,-5.825 0.474,-0.821 2.247,-1.509 3.697,-1.953 0.637,0.816 1.817,1.908 2.386,4.345 0.928,3.972 -8.181,21.038 -14.216,31.49 -6.034,10.452 -19.319,19.704 -26.216,31.649 -6.897,11.945 -3.3,22.137 1.14,25.544 3.715,1.539 10.246,0.948 16.187,-3.938 -6.677,7.996 -15.169,9.214 -19.621,7.371 -4.439,-3.407 -8.036,-13.598 -1.139,-25.544 6.897,-11.945 20.181,-21.197 26.216,-31.649 M 140.245,45.039 c 0.365,-0.776 0.919,-1.668 1.919,-2.605 2.976,-2.79 22.31,-3.434 34.379,-3.434 12.068,0 26.725,6.879 40.518,6.879 6.879,0 12.074,-2.043 15.645,-4.779 -3.216,4.268 -9.52,8.213 -19.079,8.213 -13.793,0 -28.448,-6.88 -40.518,-6.88 -10.766,0 -27.306,0.514 -32.864,2.606 M 34.721,-150.637 c 0,0 0.923,-0.195 2.035,-0.536 0.401,0.515 0.588,0.92 0.264,1.481 -0.125,0.216 -0.348,0.423 -0.624,0.619 l 0.257,-0.447 z m -4.868,133.836 c -1.7,0.168 -6.756,-2.558 -10.579,-1.216 0.605,-1.244 1.424,-2.358 2.597,-3.066 3.883,-2.14 9.588,1.029 11.416,0.85 1.308,-0.13 2.624,-0.475 3.843,-0.994 0.274,0.055 0.556,0.108 0.829,0.162 -1.662,2.42 -4.926,3.951 -8.106,4.264 m -242.389,62.435 c 1.674,-0.757 5.03,-6.355 9.462,-6.444 4.432,0.089 7.789,5.687 9.462,6.444 3.84,1.738 8.868,1.724 11.349,-1.35 v 0.108 c 0,0.973 0.755,3.51 1.685,3.51 0.932,0 1.686,-2.537 1.686,-3.51 v -0.108 c 1.161,2.346 3.23,2.906 5.191,2.269 -0.701,1.166 -1.266,2.216 -1.67,2.514 -2.353,1.739 -5.433,1.725 -6.954,-1.35 v 0.108 c 0,0.973 -0.754,3.51 -1.685,3.51 -0.931,0 -1.686,-2.537 -1.686,-3.51 v -0.108 c -2.481,3.075 -7.509,3.089 -11.349,1.35 -1.673,-0.757 -5.03,-6.355 -9.462,-6.443 -4.431,0.088 -7.788,5.686 -9.462,6.443 -3.839,1.739 -8.867,1.725 -11.348,-1.35 v 0.108 c 0,0.973 -0.755,3.51 -1.686,3.51 -0.931,0 -1.685,-2.537 -1.685,-3.51 0,0.973 -0.755,3.51 -1.686,3.51 -0.932,0 -1.686,-2.537 -1.686,-3.51 v -0.108 c -1.081,3.075 -3.272,3.089 -4.945,1.35 -0.729,-0.757 -2.192,-2.42 -4.123,-2.447 -1.931,0.027 -3.394,1.69 -4.123,2.447 -0.391,0.407 -0.811,0.712 -1.238,0.911 -0.162,-1.502 -0.311,-3.009 -0.432,-4.523 0.1,-0.415 0.158,-0.798 0.158,-1.063 v -0.108 c 1.081,3.074 3.272,3.088 4.945,1.35 0.729,-0.757 2.192,-2.42 4.123,-2.447 1.93,0.027 3.394,1.69 4.123,2.447 1.673,1.738 3.864,1.724 4.945,-1.35 v 0.108 c 0,0.973 0.755,3.51 1.686,3.51 0.931,0 1.685,-2.537 1.685,-3.51 0,0.973 0.755,3.51 1.686,3.51 0.931,0 1.686,-2.537 1.686,-3.51 v -0.108 c 2.481,3.074 7.509,3.088 11.348,1.35 M -84.421,-9.879 c 3.683,0 6.667,2.984 6.667,6.666 0,2.732 -1.643,5.075 -3.994,6.106 0.359,-0.819 0.562,-1.721 0.562,-2.672 0,-3.683 -2.986,-6.667 -6.667,-6.667 -0.952,0 -1.854,0.202 -2.673,0.561 1.03,-2.35 3.375,-3.994 6.105,-3.994 m 98.005,2.331 c -0.039,0.072 -0.077,0.152 -0.118,0.209 -1.586,2.212 -3.968,4.031 -6.448,4.665 0.329,-0.875 -0.16,-2.792 -0.569,-3.499 L 6.396,-6.268 c 2.344,0.906 4.961,0.219 7.188,-1.28 m -25.516,56.615 c -2.353,1.739 -5.433,1.725 -6.954,-1.35 v -0.163 h -14.803 l -3.59,-2.073 c 0.128,-0.452 0.258,-0.903 0.373,-1.36 h 21.453 v 0.163 c 1.16,2.346 3.229,2.906 5.19,2.269 -0.7,1.166 -1.265,2.216 -1.669,2.514 m 63.373,76.643 c -6.167,8.926 -13.197,17.21 -20.957,24.746 6.409,-6.598 12.28,-13.723 17.525,-21.314 0.104,-0.318 0.218,-0.601 0.327,-0.789 l 0.054,-0.095 c -2.474,2.123 -4.378,1.04 -4.958,-1.302 -0.252,-1.021 -0.688,-3.192 -2.347,-4.181 -1.686,-0.942 -3.784,-0.234 -4.794,0.058 -2.318,0.669 -4.209,-0.439 -3.607,-3.643 l -0.054,0.094 c -0.487,0.843 -2.409,2.663 -3.215,2.197 -0.807,-0.465 -0.191,-3.04 0.295,-3.882 -0.486,0.842 -2.409,2.662 -3.215,2.196 -0.806,-0.465 -0.191,-3.04 0.295,-3.882 l 0.054,-0.094 c -3.686,1.423 -8.047,-1.079 -10.503,-4.505 -1.07,-1.493 -1.179,-8.018 -4.973,-10.311 -3.883,-2.139 -9.588,1.03 -11.416,0.849 -4.194,-0.413 -8.542,-2.94 -9.153,-6.844 l -0.054,0.095 c -0.486,0.842 -2.409,2.662 -3.215,2.196 -0.806,-0.466 -0.191,-3.04 0.295,-3.882 l 0.054,-0.094 c -2.854,1.903 -5.529,0.374 -6.697,-2.308 -0.509,-1.169 0.508,-7.044 -1.799,-8.479 -2.397,-1.281 -6.976,2.538 -8.243,2.681 -2.907,0.33 -5.568,-1.223 -5.347,-4.646 l 0.081,-0.141 -12.82,-7.402 -3.334,-5.775 c 0.336,-0.326 0.666,-0.656 0.992,-0.992 l 18.596,10.736 -0.082,0.141 c -0.221,3.423 2.44,4.976 5.347,4.646 1.267,-0.143 5.846,-3.962 8.242,-2.681 2.308,1.435 1.291,7.31 1.8,8.479 1.168,2.682 3.844,4.211 6.697,2.308 l -0.054,0.093 c -0.486,0.843 -1.101,3.417 -0.295,3.883 0.807,0.466 2.728,-1.354 3.215,-2.197 l 0.054,-0.093 c 0.612,3.903 4.958,6.429 9.154,6.843 1.827,0.181 7.533,-2.988 11.415,-0.849 3.794,2.293 3.902,8.818 4.973,10.311 2.456,3.426 6.817,5.928 10.503,4.505 l -0.054,0.094 c -0.487,0.842 -1.102,3.417 -0.295,3.882 0.806,0.466 2.728,-1.354 3.215,-2.197 -0.487,0.843 -1.102,3.418 -0.295,3.883 0.806,0.466 2.728,-1.354 3.215,-2.196 l 0.054,-0.095 c -0.601,3.204 1.289,4.312 3.607,3.642 1.01,-0.291 3.109,-1 4.795,-0.057 1.658,0.988 2.093,3.16 2.346,4.18 0.579,2.343 2.485,3.426 4.958,1.304 l -0.054,0.093 c -0.109,0.189 -0.223,0.472 -0.328,0.791 M -65.421,32.121 c 0,6.122 -2.907,11.553 -7.404,15.028 2.48,-3.21 3.972,-7.224 3.972,-11.595 0,-10.493 -8.507,-19 -19,-19 -4.371,0 -8.385,1.491 -11.596,3.971 3.475,-4.497 8.906,-7.404 15.028,-7.404 10.494,0 19,8.506 19,19 m -77.282,127.567 c -0.302,-0.287 -0.597,-0.522 -0.822,-0.652 l -0.094,-0.055 c 0.636,-0.099 1.23,-0.307 1.79,-0.588 -0.263,0.459 -0.554,0.893 -0.874,1.295 m 8.037,-58.852 c -0.471,-2.392 -2.741,-5.316 -2.851,-6.289 -0.29,-2.558 0.88,-4.924 3.498,-5.304 -0.113,0.592 -0.138,1.225 -0.065,1.871 0.143,1.267 3.962,5.846 2.681,8.243 -0.573,0.921 -1.856,1.308 -3.263,1.479 m -51.573,-0.2 c 0.605,-1.243 1.424,-2.358 2.596,-3.066 3.884,-2.139 9.589,1.03 11.417,0.849 1.784,-0.176 3.592,-0.737 5.132,-1.621 -1.444,2.876 -5.054,4.708 -8.565,5.054 -1.701,0.168 -6.757,-2.559 -10.58,-1.216 m 86.278,-17.598 2.18,-3.776 c 0.452,0.128 0.903,0.258 1.361,0.373 v 21.453 h -0.163 c -3.075,1.52 -3.089,4.601 -1.351,6.954 0.758,1.025 6.355,3.083 6.444,5.798 -0.05,1.517 -1.818,2.828 -3.502,3.868 0.036,-0.143 0.064,-0.288 0.069,-0.435 -0.089,-2.715 -5.686,-4.772 -6.444,-5.798 -1.738,-2.353 -1.724,-5.433 1.35,-6.953 h 0.164 V 83.068 c -0.037,-0.009 -0.072,-0.021 -0.108,-0.03 m -14.15,25.023 c -0.702,0.305 -3.101,0.064 -5.217,0.32 -0.142,-0.723 -0.127,-1.399 0.17,-1.954 1.322,-2.125 6.397,-1.433 8.108,-1.707 -0.321,1.452 -1.49,2.656 -3.061,3.341 m 40.689,1.65 c -0.197,0.609 -0.507,1.207 -0.918,1.764 -0.335,0.453 -1.612,1.107 -2.942,1.93 0.362,-1.46 2.224,-2.711 3.86,-3.694 M -60.98,59.387 c 1.84,3.189 0.748,7.266 -2.441,9.107 -0.218,0.126 -0.441,0.236 -0.667,0.334 0.82,-1.875 0.777,-4.099 -0.325,-6.008 -1.715,-2.97 -5.37,-4.119 -8.439,-2.775 0.55,-1.257 1.485,-2.359 2.765,-3.098 3.189,-1.841 7.266,-0.749 9.107,2.44 m -85.189,106.668 c -0.185,-0.392 -0.452,-0.803 -0.821,-1.234 l 0.094,0.054 c 0.437,0.252 1.337,0.535 2.17,0.64 -0.012,0.056 -0.007,0.12 -0.035,0.168 -0.194,0.337 -0.759,0.418 -1.408,0.372 m 71.234,94.164 c 0.252,-0.672 0.527,-1.193 0.828,-1.514 0.508,-0.543 1.005,-0.953 1.476,-1.276 0.183,0.362 0.298,0.701 0.298,0.989 0,1.112 -1.069,1.079 -2.602,1.801 m 111.928,-389.71 c -13.127,-2.462 -27.336,-4.707 -42.527,-6.549 -24.926,-12.006 -52.851,-18.739 -82.319,-18.739 -29.482,0 -57.418,6.738 -82.353,18.755 -15.19,1.843 -29.398,4.091 -42.523,6.555 1.674,-1.27 3.37,-2.513 5.081,-3.736 12.667,-2.344 26.315,-4.484 40.875,-6.253 24.935,-12.016 52.871,-18.754 82.352,-18.754 29.469,0 57.394,6.733 82.32,18.738 11.091,1.345 21.652,2.907 31.658,4.609 2.515,1.743 5.001,3.526 7.436,5.374 m -124.801,87.805 c -128.755,0.043 -224.538,40.275 -224.538,40.275 v -91.322 c 0,0 1.175,-0.523 3.433,-1.442 v 89.33 c 0,0 95.783,-40.23 224.538,-40.274 114.52,0.039 202.948,31.867 221.105,38.906 v 4.802 c 0,0 -95.782,-40.232 -224.538,-40.275 m -229.105,-57.771 v -1.902 l 4.745,-2.115 c 0.932,-0.416 7.191,-3.157 18.105,-7.037 1.264,0.334 2.516,0.653 3.751,0.95 -15.369,5.163 -24.168,9.021 -25.29,9.52 z m -3.433,70.209 c -19.986,-7.644 -52.627,-24.182 -52.627,-24.182 l 6.086,-2.101 c 7.61,3.799 30.101,14.884 46.541,21.5 z m 255.623,-3.992 c 1.368,0.052 2.723,0.115 4.08,0.176 L -71.06,-15.02 c -0.416,-0.118 -0.833,-0.236 -1.253,-0.344 l 8.551,-14.81 -0.141,-0.082 c -0.694,-1.04 -0.927,-2.055 -0.82,-2.984 M 3.529,-4.487 C 3.86,-3.914 4.854,-2.902 5.71,-2.452 4.886,-2.389 4.066,-2.478 3.272,-2.736 3.441,-3.275 3.521,-3.888 3.476,-4.581 Z M 3.164,-2.429 C 3.611,-1.394 4.037,0.724 3.312,1.143 2.727,1.48 1.56,0.615 0.774,-0.206 1.853,-0.592 2.721,-1.332 3.164,-2.429 m -99.747,198.892 h -0.109 c -0.265,0 -0.648,0.058 -1.063,0.159 -1.514,-0.122 -3.02,-0.27 -4.522,-0.433 0.198,-0.427 0.504,-0.847 0.91,-1.238 0.758,-0.729 2.421,-2.192 2.447,-4.122 -0.026,-1.932 -1.689,-3.394 -2.447,-4.123 -1.738,-1.673 -1.724,-3.865 1.35,-4.946 h -0.108 c -0.973,0 -3.51,-0.754 -3.51,-1.685 0,-0.932 2.537,-1.686 3.51,-1.686 -0.973,0 -3.51,-0.755 -3.51,-1.686 0,-0.931 2.537,-1.686 3.51,-1.686 h 0.108 c -3.074,-2.48 -3.088,-7.509 -1.35,-11.349 0.758,-1.673 6.355,-5.029 6.444,-9.461 -0.089,-4.432 -5.686,-7.789 -6.444,-9.462 -1.738,-3.84 -1.724,-8.868 1.35,-11.348 h -0.108 c -0.973,0 -3.51,-0.755 -3.51,-1.687 0,-0.931 2.537,-1.685 3.51,-1.685 h 0.108 c -3.074,-1.52 -3.088,-4.601 -1.35,-6.954 0.298,-0.403 1.348,-0.969 2.515,-1.67 -0.638,1.961 -0.078,4.031 2.269,5.191 h -0.109 c -0.972,0 -3.51,0.755 -3.51,1.685 0,0.931 2.538,1.686 3.51,1.686 h 0.109 c -3.075,2.481 -3.089,7.51 -1.351,11.349 0.758,1.673 6.355,5.03 6.444,9.462 -0.089,4.432 -5.686,7.788 -6.444,9.462 -1.738,3.839 -1.724,8.868 1.351,11.348 h -0.109 c -0.972,0 -3.51,0.755 -3.51,1.686 0,0.931 2.538,1.686 3.51,1.686 -0.972,0 -3.51,0.754 -3.51,1.686 0,0.931 2.538,1.686 3.51,1.686 h 0.109 c -3.075,1.08 -3.089,3.272 -1.351,4.944 0.758,0.73 2.42,2.193 2.447,4.124 -0.027,1.93 -1.689,3.393 -2.447,4.122 -1.738,1.673 -1.724,3.864 1.351,4.945 m -38.393,-228.319 c 1.141,-0.087 2.293,-0.165 3.44,-0.247 -0.777,2.134 -2.454,4.398 -2.548,5.23 -0.33,2.907 1.223,5.568 4.647,5.348 l 0.14,-0.082 10.736,18.595 c -0.335,0.326 -0.666,0.657 -0.992,0.992 l -5.775,-3.333 -7.401,-12.821 -0.142,0.081 c -3.423,0.221 -4.976,-2.44 -4.646,-5.346 0.144,-1.267 3.962,-5.847 2.681,-8.244 -0.039,-0.063 -0.094,-0.115 -0.14,-0.173 m -29.803,178.62 c -0.708,-0.409 -2.625,-0.897 -3.5,-0.568 0.634,-2.481 2.453,-4.862 4.665,-6.448 0.058,-0.041 0.137,-0.08 0.209,-0.118 -1.499,2.227 -2.186,4.844 -1.281,7.188 z M -18.611,8.17 c 1.181,0.788 2.331,0.981 3.356,0.754 -0.023,0.147 -0.052,0.279 -0.092,0.372 -1.168,2.682 -3.843,4.21 -6.697,2.308 l -0.082,-0.142 -14.809,8.551 c -0.109,-0.42 -0.227,-0.836 -0.344,-1.252 L -18.692,8.029 Z m -164.137,219.812 c -0.2,-0.764 -0.374,-1.303 -0.374,-1.303 l 0.845,0.487 z m -3.11,-152.76 c -0.963,1.797 -1.207,7.899 -4.854,10.103 -0.27,0.149 -0.55,0.266 -0.836,0.366 1.354,-2.78 1.636,-6.213 2.375,-7.245 0.894,-1.246 2.041,-2.366 3.315,-3.224 m 7.874,-5.095 c -0.437,0.033 -0.873,0.11 -1.307,0.221 0.062,-0.166 0.144,-0.308 0.273,-0.383 0.257,-0.149 0.632,-0.05 1.034,0.162 m -33.297,21.192 -0.054,-0.094 c -0.13,-0.225 -0.366,-0.52 -0.653,-0.822 0.403,-0.32 0.836,-0.61 1.295,-0.874 -0.281,0.56 -0.489,1.155 -0.588,1.79 m 35.843,-21.215 c 0.049,0.114 0.099,0.227 0.148,0.311 l 0.054,0.093 c -0.102,-0.039 -0.207,-0.064 -0.31,-0.098 0.033,-0.104 0.068,-0.207 0.108,-0.306 m -36.56,52.729 c -0.743,-0.215 -2.072,-0.649 -3.394,-0.493 0.32,-1.048 0.876,-2.309 2.033,-2.998 1.685,-0.943 3.784,-0.234 4.794,0.057 0.072,0.021 0.141,0.035 0.212,0.052 0.449,2.998 -1.393,4.032 -3.645,3.382 m -5.817,-30.407 c 0.105,0.833 0.388,1.734 0.64,2.171 l 0.054,0.093 c -0.43,-0.369 -0.842,-0.635 -1.234,-0.821 -0.045,-0.648 0.036,-1.214 0.372,-1.408 0.048,-0.027 0.112,-0.022 0.168,-0.035 m 98.061,-66.972 c 3.682,0 6.667,2.985 6.667,6.667 0,2.731 -1.644,5.075 -3.994,6.105 0.358,-0.818 0.561,-1.721 0.561,-2.672 0,-3.682 -2.985,-6.667 -6.667,-6.667 -0.951,0 -1.853,0.203 -2.672,0.561 1.03,-2.35 3.375,-3.994 6.105,-3.994 m 10.507,21 c 1.842,3.189 0.749,7.266 -2.44,9.107 -0.218,0.126 -0.441,0.235 -0.667,0.335 0.82,-1.876 0.776,-4.1 -0.326,-6.009 -1.714,-2.97 -5.369,-4.118 -8.439,-2.775 0.551,-1.257 1.486,-2.359 2.766,-3.098 3.188,-1.841 7.266,-0.748 9.106,2.44 m -98.948,73.036 c 1.38,0.29 2.556,-0.088 3.07,-1.201 0.381,1.106 0.649,2.819 0.003,3.192 -0.748,0.432 -2.442,-1.095 -3.073,-1.991 m 89.635,-52.237 -10.737,18.596 -0.14,-0.082 c -0.472,-0.031 -0.904,-10e-4 -1.304,0.07 l 8.747,-15.15 c -0.335,-0.327 -0.666,-0.658 -0.992,-0.993 l -15.151,8.747 c 0.072,-0.4 0.1,-0.832 0.071,-1.303 l -0.082,-0.141 18.595,-10.736 c 0.326,0.336 0.657,0.666 0.993,0.992 m -102.049,57.666 -0.055,-0.093 c 0.648,0.555 1.255,0.886 1.811,1.037 -0.124,0.42 -0.215,0.804 -0.286,1.093 -0.023,0.089 -0.05,0.174 -0.077,0.26 -0.355,-0.503 -0.717,-1.001 -1.067,-1.508 -0.104,-0.318 -0.218,-0.601 -0.326,-0.789 m 63.59,-66.168 c -0.274,1.71 0.417,6.786 -1.707,8.107 -0.556,0.297 -1.232,0.312 -1.955,0.17 0.256,-2.116 0.015,-4.514 0.321,-5.216 0.684,-1.572 1.888,-2.741 3.341,-3.061 m -15.352,9.978 c -0.133,-0.232 -0.38,-0.537 -0.678,-0.848 0.248,-0.088 0.508,-0.156 0.775,-0.207 -0.052,0.357 -0.069,0.739 -0.042,1.149 z m -19.677,42.585 c -1.586,2.212 -3.967,4.032 -6.447,4.666 0.329,-0.876 -0.16,-2.792 -0.568,-3.5 l -0.055,-0.094 c 2.345,0.905 4.961,0.218 7.189,-1.281 -0.039,0.073 -0.077,0.151 -0.119,0.209 m 69.4,15.678 c 0.111,-0.434 0.188,-0.871 0.222,-1.307 0.211,0.401 0.31,0.776 0.161,1.034 -0.074,0.129 -0.216,0.21 -0.383,0.273 m -82.396,-8.889 c 0.219,-0.595 0.269,-1.372 0.087,-2.346 l 0.054,0.095 c 0.457,0.791 2.171,2.422 3.046,2.231 0.098,0.773 0.044,1.488 -0.345,1.712 -0.669,0.387 -2.094,-0.795 -2.842,-1.692 m 84.016,1.968 -0.094,-0.054 c 0.41,0.026 0.791,0.009 1.148,-0.043 -0.051,0.267 -0.118,0.527 -0.207,0.775 -0.311,-0.298 -0.616,-0.545 -0.847,-0.678 m -30.629,-40.968 c 2.397,-1.281 6.976,2.538 8.243,2.681 0.646,0.073 1.278,0.049 1.872,-0.064 -0.381,2.617 -2.747,3.787 -5.305,3.497 -0.973,-0.11 -3.897,-2.38 -6.289,-2.851 0.17,-1.407 0.558,-2.69 1.479,-3.263 m 52.903,-22.156 c 3.189,1.841 4.281,5.918 2.441,9.107 -0.74,1.279 -1.842,2.215 -3.099,2.765 1.344,-3.07 0.195,-6.724 -2.775,-8.439 -1.908,-1.102 -4.133,-1.146 -6.008,-0.326 0.099,-0.225 0.208,-0.449 0.334,-0.667 1.841,-3.189 5.919,-4.281 9.107,-2.44 m -31.992,79.926 c -1.032,0.739 -4.465,1.021 -7.245,2.375 0.1,-0.286 0.218,-0.566 0.367,-0.836 2.204,-3.646 8.306,-3.89 10.102,-4.854 -0.857,1.274 -1.978,2.421 -3.224,3.315 m 8.032,-13.882 c 0.084,0.048 0.196,0.098 0.311,0.148 -0.099,0.04 -0.202,0.074 -0.307,0.107 -0.034,-0.103 -0.059,-0.207 -0.098,-0.309 z m -26.885,-12.053 c 0.466,-0.807 3.04,-0.192 3.883,0.294 l 0.094,0.055 c -1.903,-2.854 -0.375,-5.53 2.307,-6.698 0.093,-0.04 0.224,-0.068 0.372,-0.092 -0.227,1.026 -0.034,2.175 0.754,3.357 l -0.094,-0.055 c -0.843,-0.486 -3.417,-1.101 -3.883,-0.295 -0.465,0.807 1.355,2.729 2.197,3.215 l 0.094,0.054 c -1.749,0.274 -3.22,1.302 -4.35,2.727 -0.829,-0.786 -1.715,-1.972 -1.374,-2.562 m -16.2,-15.013 c 1.425,-1.13 2.452,-2.6 2.726,-4.349 l 0.054,0.093 c 0.486,0.843 2.409,2.663 3.215,2.197 0.806,-0.466 0.191,-3.04 -0.295,-3.883 l -0.054,-0.093 c 1.181,0.788 2.33,0.981 3.356,0.754 -0.023,0.147 -0.052,0.278 -0.092,0.371 -1.168,2.682 -3.843,4.211 -6.697,2.308 l 0.054,0.094 c 0.486,0.842 1.101,3.416 0.295,3.882 -0.591,0.341 -1.777,-0.545 -2.562,-1.374 m -35.574,20.206 c -0.123,-0.772 -0.379,-1.565 -0.61,-1.966 0.33,0.574 1.323,1.586 2.18,2.036 -0.527,0.04 -1.051,0.016 -1.57,-0.07 m 51.987,53.933 c 0.427,1.568 -0.611,2.72 -2.34,3.148 -0.309,0.076 -0.728,0.175 -1.183,0.314 0.057,-0.477 0.185,-0.953 0.435,-1.401 0.709,-1.19 2.023,-1.746 3.088,-2.061 m -6.672,10.463 c 0.09,0.017 0.173,0.025 0.26,0.038 0.013,0.053 0.028,0.107 0.039,0.159 -0.07,-0.049 -0.145,-0.108 -0.205,-0.143 z m 3.122,-46.588 c 1.244,-0.605 2.357,-1.424 3.066,-2.596 2.14,-3.883 -1.029,-9.589 -0.849,-11.417 0.176,-1.783 0.738,-3.592 1.621,-5.132 -2.876,1.444 -4.708,5.054 -5.054,8.565 -0.168,1.702 2.559,6.758 1.216,10.58"
                   style="fill:#bcbec0;fill-opacity:1;fill-rule:nonzero;stroke:none"
                   id="path8511" />
              </g>
            </g>
          </g>
        </g>
      </g>
    </g>
  </g>
</svg>
